<svg xmlns="http://www.w3.org/2000/svg" id="Layer_1" height="512" viewBox="0 0 468 468" width="512"><g><g><g><path d="m221.082 210.885v-54.262c0-31.475-22.268-58.553-53.153-64.635-47.063-28.283-106.985 5.612-106.985 60.515v58.381c0 22.898 18.564 41.46 41.465 41.46h77.209c22.9.001 41.464-18.561 41.464-41.459z" fill="#4c4c4c"></path><g><path d="m172.008 261.078v-54.559h-66.852v54.559l-27.389 10.517c-16.024 6.153-26.6 21.542-26.6 38.705v74.889h179.692v-74.029c0-17.587-11.097-33.261-27.687-39.105z" fill="#ea2f2f"></path><path d="m69.56 315.892c0-13.761 8.479-26.1 21.326-31.032l32.663-12.542v-54.559h48.459v-11.24h-66.852v54.559l-27.389 10.517c-16.024 6.153-26.6 21.542-26.6 38.705v74.889h18.393z" fill="#cc2929"></path></g><path d="m172.76 261.342-.751-.265v-54.559h-66.852v54.559l-.042.016 31.192 42.459-.027 45.725c-.001 2.761 2.236 5.001 4.997 5.003h.003c2.76 0 4.999-2.237 5-4.997l.027-46.697z" fill="#f9b995"></path><g><g><ellipse cx="141.013" cy="183.768" fill="#fdd2b5" rx="50.837" ry="57.97"></ellipse></g><g><path d="m167.929 91.988c-47.063-28.283-106.985 5.612-106.985 60.515v19.933l14.969-2.722c28.413-5.167 53.791-20.958 70.978-44.163 23.045 26.869 47.853 52.183 74.192 75.832v-44.76c-.001-31.475-22.269-58.553-53.154-64.635z" fill="#3a3a3a"></path></g></g></g><g><g><path d="m234.684 468h-185.27l-24.946-142.546h235.163z" fill="#4c62bf"></path><path d="m60.909 343.847h195.502l3.219-18.393h-235.162l24.946 142.546h16.196l-18.792-107.382c-1.532-8.754 5.204-16.771 14.091-16.771z" fill="#4057a0"></path></g><path d="m156.724 401.216h-29.349c-2.761 0-5-2.239-5-5s2.239-5 5-5h29.349c2.761 0 5 2.239 5 5s-2.239 5-5 5z" fill="#fff"></path></g></g><g><g><path d="m132.029 105.707-29.207-25.754h-102.822v-79.953h132.029z" fill="#75af23"></path><path d="m31.677 17.371h100.352v-17.371h-132.029v79.953h17.371v-48.276c0-7.901 6.405-14.306 14.306-14.306z" fill="#62960f"></path></g><g fill="#fff"><path d="m101.346 32.549h-70.662c-2.761 0-5-2.239-5-5s2.239-5 5-5h70.662c2.761 0 5 2.239 5 5s-2.239 5-5 5z"></path><path d="m81.188 58.096h-50.504c-2.761 0-5-2.239-5-5s2.239-5 5-5h50.504c2.761 0 5 2.239 5 5s-2.239 5-5 5z"></path></g></g><g><g><g><path d="m468 120.588c0-64.623-54.114-116.612-119.52-113.17-58.313 3.069-105.148 50.788-107.184 109.117-1.012 28.996 8.885 55.655 25.902 76.213 18.248 21.961 28.27 49.613 27.523 78.135 0 7.575 6.144 13.716 13.723 13.716h92.338c7.579 0 13.723-6.141 13.723-13.716-.705-28.133 8.615-55.799 26.83-77.306 16.636-19.714 26.665-45.177 26.665-72.989z" fill="#00c9ff"></path><path d="m413.043 268.25-87.57-.709c-7.267-.059-13.28-5.564-14.104-12.785-1.114-9.763-3.499-19.293-7.023-28.401-3.868-17.889-11.947-34.716-23.933-48.819-7.907-9.303-14.331-19.9-18.923-31.425-2.18-9.461-3.18-19.372-2.824-29.576 2.006-57.465 47.494-104.63 104.601-108.95-4.851-.366-9.786-.431-14.788-.167-34.263 1.835-64.421 18.905-84.118 44.729-31.606 40.161-30.493 101.162 2.496 140.181 18.459 22.018 28.624 49.973 27.862 78.555 0 7.575 6.144 13.716 13.723 13.716h17.371 74.967c7.579 0 13.723-6.144 13.723-13.723v-2.706c-.479.052-.966.08-1.46.08z" fill="#00c0ed"></path></g><g><path d="m386.478 321.982h-63.732c-5.523 0-10-4.477-10-10v-27.382h83.732v27.382c0 5.522-4.477 10-10 10z" fill="#eee"></path><path d="m333.488 309.72c-4.684 0-8.481-3.797-8.481-8.48v-16.64h-12.262v27.164c0 5.643 4.575 10.218 10.218 10.218h63.296c5.644 0 10.218-4.575 10.218-10.218v-2.044z" fill="#e0e0e0"></path></g><g><path d="m291.374 240.242h126.393c.817-3.379 1.786-6.714 2.903-10h-132.264c1.139 3.286 2.129 6.623 2.968 10z" fill="#fff"></path></g></g><g><g><path d="m438.177 135.232v-27.09l-19.305-4.703c-1.409-4.961-3.384-9.685-5.845-14.102l10.348-16.986-19.221-19.155-16.997 10.284c-4.425-2.466-9.159-4.448-14.132-5.867l-4.733-19.294h-27.182l-4.719 19.239c-4.978 1.404-9.718 3.372-14.15 5.825l-17.045-10.313-19.221 19.155 10.319 16.939c-2.475 4.41-4.463 9.128-5.887 14.084l-19.36 4.717v27.09l19.305 4.703c1.409 4.961 3.384 9.685 5.845 14.102l-10.348 16.986 19.221 19.155 16.997-10.284c4.425 2.466 9.159 4.448 14.132 5.867l4.733 19.294h27.183l4.719-19.239c4.978-1.404 9.718-3.372 14.15-5.825l17.044 10.313 19.221-19.155-10.319-16.939c2.475-4.41 4.463-9.128 5.887-14.084z" fill="#eee"></path><path d="m373.025 57.613-4.733-19.294h-27.182l-4.719 19.239c-4.978 1.404-9.718 3.372-14.15 5.825l-17.045-10.313-19.221 19.155 10.319 16.939c-2.475 4.41-4.463 9.128-5.887 14.084l-19.36 4.717v27.09l19.305 4.703c1.409 4.961 3.384 9.685 5.845 14.102l-10.348 16.986 19.221 19.155 16.996-10.284c1.908 1.064 3.885 2.018 5.902 2.895l3.178-6.929c1.255-2.736.224-6.008-2.414-7.459-.038-.021-.075-.041-.113-.062-4.204-2.331-9.317-2.298-13.429.19l-8.105 4.904-4.449-4.434 4.905-8.051c2.52-4.136 2.525-9.279.181-13.517-1.924-3.479-3.45-7.158-4.539-10.938-1.343-4.663-4.972-8.314-9.687-9.463l-9.166-2.233v-6.218l9.22-2.246c4.696-1.144 8.321-4.769 9.672-9.409 1.102-3.786 2.639-7.46 4.569-10.927 2.366-4.248 2.376-9.412-.154-13.565l-4.876-8.004 4.449-4.433 8.152 4.932c4.118 2.491 9.226 2.501 13.443.183 3.498-1.922 7.2-3.448 11.009-4.537 4.666-1.334 8.321-4.959 9.477-9.672l2.236-9.119h6.345l2.25 9.175c1.146 4.672 4.741 8.31 9.364 9.64.046.013.091.026.137.04 3.637 1.057 7.49-.803 9.025-4.265l2.507-5.652c-2.628-1.141-5.336-2.133-8.13-2.93z" fill="#e0e0e0"></path></g><g><path d="m322.478 97.475h19.331c2.843-.578 4.443-3.892 2.886-6.578-4.272-5.834-3.277-14.284 2.969-18.212 3.921-2.509 8.914-2.509 12.835 0 6.247 3.93 7.241 12.378 2.969 18.212-1.557 2.686.043 6 2.885 6.578h19.38v17.22c-.572 2.871-3.854 4.487-6.514 2.914-5.776-4.314-14.142-3.311-18.034 2.999-2.485 3.96-2.485 9.002 0 12.962 3.892 6.31 12.258 7.312 18.034 2.999 2.66-1.573 5.942.043 6.514 2.914v19.197h-63.17z" fill="#f78131"></path><path d="m335.829 132.132-.047-34.657h-13.304l.087 61.205h63.17v-12.262h-35.6c-7.894 0-14.296-6.393-14.306-14.286z" fill="#e0752d"></path></g></g></g><g fill="#fff"><ellipse cx="210.728" cy="383.455" rx="11.113" ry="17.396"></ellipse><path d="m187.631 420.783c.305 6.289-2.887 11.23-7.129 11.036s-7.928-5.45-8.233-11.739 2.887-11.23 7.129-11.036 7.929 5.45 8.233 11.739z"></path></g></g></svg>