<svg id="Layer_1" enable-background="new 0 0 468.006 468.006" height="512" viewBox="0 0 468.006 468.006" width="512" xmlns="http://www.w3.org/2000/svg"><g><g><g><g><path d="m408.394 138.64 5.88 1.246-6.799 1.929c-3.581 1.016-6.316 3.916-7.119 7.55l-1.261 5.701-1.261-5.701c-.804-3.635-3.538-6.535-7.119-7.55l-6.799-1.929 5.88-1.246c3.807-.807 6.814-3.725 7.734-7.505l1.565-6.428 1.565 6.428c.921 3.78 3.928 6.698 7.734 7.505z" fill="#ad9cdb"/></g></g><g><g><g><circle cx="370.619" cy="299.692" fill="#ff8a80" r="8.265"/></g></g><g><g><circle cx="97.387" cy="299.692" fill="#ff8a80" r="8.265"/></g></g></g><g><g><path d="m78.211 137.935 5.88 1.246-6.799 1.929c-3.581 1.016-6.316 3.916-7.119 7.55l-1.261 5.701-1.261-5.701c-.804-3.635-3.538-6.535-7.119-7.55l-6.799-1.929 5.88-1.246c3.807-.807 6.814-3.725 7.734-7.505l1.565-6.428 1.565 6.428c.92 3.781 3.927 6.699 7.734 7.505z" fill="#ad9cdb"/></g></g></g><g><g><g><g><g><g><path d="m118.042 402.734 47.229-32.323 23.425 57.739c11.71-62.139 33.732-121.938 65.176-176.978l-70.654-25.416c-31.444 55.04-53.466 114.839-65.176 176.978z" fill="#9595fc"/></g><g><path d="m183.218 225.756c-31.444 55.04-53.466 114.839-65.176 176.978l23.52-16.097c11.828-54.112 31.524-106.264 58.49-154.826z" fill="#7676ff"/></g></g><g><g><path d="m350.009 402.734-47.229-32.323-23.425 57.739c-11.71-62.139-33.732-121.938-65.176-176.978l70.654-25.416c31.444 55.04 53.466 114.839 65.176 176.978z" fill="#9595fc"/></g><g><path d="m284.833 225.756c31.444 55.04 53.466 114.839 65.176 176.978l-23.52-16.097c-11.828-54.112-31.524-106.264-58.49-154.826z" fill="#7676ff"/></g></g></g><g><g><path d="m349.248 192.155c0-11.492-6.386-21.49-15.802-26.646 5.577-9.172 6.108-21.025.362-30.977s-16.276-15.418-27.008-15.175c.244-10.732-5.222-21.262-15.175-27.008-9.952-5.746-21.805-5.215-30.977.362-5.155-9.416-15.154-15.802-26.646-15.802s-21.491 6.386-26.646 15.802c-9.172-5.577-21.025-6.108-30.977-.362s-15.418 16.276-15.175 27.008c-10.732-.244-21.262 5.222-27.008 15.175-5.746 9.952-5.215 21.805.362 30.977-9.416 5.155-15.802 15.154-15.802 26.646s6.386 21.49 15.802 26.646c-5.577 9.172-6.108 21.025-.362 30.977s16.276 15.418 27.008 15.175c-.244 10.732 5.222 21.262 15.175 27.008 9.952 5.746 21.805 5.215 30.977-.363 5.155 9.416 15.154 15.803 26.646 15.803s21.49-6.386 26.646-15.803c9.172 5.577 21.025 6.109 30.977.363s15.418-16.276 15.175-27.008c10.732.244 21.262-5.222 27.008-15.175 5.746-9.952 5.215-21.805-.362-30.977 9.416-5.156 15.802-15.154 15.802-26.646z" fill="#f69"/></g><g><path d="m349.248 192.155c0-11.279-6.152-21.12-15.283-26.355-.285-.163-.38-.519-.215-.803 5.29-9.099 5.698-20.697.058-30.465s-15.888-15.214-26.413-15.182c-.329.001-.589-.259-.588-.588.032-10.525-5.414-20.773-15.182-26.413s-21.367-5.232-30.465.058c-.284.165-.64.07-.803-.215-5.235-9.131-15.075-15.283-26.355-15.283-11.279 0-21.12 6.152-26.355 15.283-.163.285-.519.38-.803.215-9.099-5.29-20.697-5.698-30.465-.058s-15.214 15.888-15.182 26.413c.001.329-.259.589-.588.588-10.525-.032-20.773 5.414-26.413 15.182s-5.232 21.367.058 30.465c.165.284.07.64-.215.803-9.131 5.235-15.283 15.075-15.283 26.355 0 11.279 6.152 21.12 15.283 26.355.285.163.38.519.215.803-5.29 9.099-5.698 20.697-.058 30.465s15.888 15.214 26.413 15.182c.329-.001.589.259.588.588-.032 10.525 5.414 20.773 15.182 26.413s21.367 5.232 30.465-.058c.284-.165.64-.07.803.215 5.235 9.131 15.075 15.283 26.355 15.283s21.12-6.152 26.355-15.283c.163-.285.519-.38.803-.215 9.099 5.29 20.697 5.698 30.465.058s15.214-15.888 15.182-26.413c-.001-.329.259-.589.588-.588 10.525.032 20.773-5.414 26.413-15.182s5.232-21.367-.058-30.465c-.165-.284-.07-.64.215-.803 9.131-5.235 15.283-15.076 15.283-26.355zm-22.607 14.22-.429.235c-6.85 3.751-9.184 12.46-5.126 19.133l.255.419c3.082 5.07 3.158 11.405.198 16.532-2.884 4.996-8.268 8.099-14.05 8.099l-.367-.004-.49-.011c-7.807-.177-14.183 6.199-14.006 14.006l.011.49c.134 5.932-2.968 11.457-8.095 14.418-2.806 1.619-5.883 2.342-9.125 2.14-2.779-.174-5.448-1.147-7.827-2.593-6.673-4.058-15.384-1.724-19.134 5.127l-.235.43c-2.849 5.205-8.297 8.439-14.218 8.439s-11.369-3.234-14.218-8.439l-.235-.43c-3.75-6.851-12.46-9.185-19.134-5.127l-.419.255c-2.553 1.552-5.481 2.372-8.468 2.372-2.814 0-5.602-.752-8.065-2.174-5.127-2.96-8.229-8.484-8.095-14.417l.011-.49c.177-7.807-6.199-14.183-14.006-14.006l-.49.011-.366.004c-5.783 0-11.167-3.103-14.052-8.099-2.96-5.127-2.884-11.463.199-16.532l.255-.419c4.058-6.673 1.724-15.383-5.126-19.133l-.429-.235c-5.206-2.851-8.44-8.299-8.44-14.22s3.234-11.369 8.439-14.218l.43-.236c6.85-3.75 9.184-12.46 5.127-19.133l-.254-.419c-3.083-5.072-3.159-11.407-.199-16.534 2.884-4.996 8.268-8.099 14.051-8.099l.366.004.49.011c7.807.177 14.183-6.199 14.006-14.006l-.011-.49c-.134-5.932 2.968-11.457 8.095-14.418 2.805-1.619 5.883-2.343 9.125-2.14 2.778.174 5.448 1.146 7.826 2.593l.002.001c6.673 4.057 15.382 1.723 19.133-5.127l.236-.43c2.849-5.204 8.297-8.438 14.218-8.438s11.369 3.234 14.218 8.438l.236.43c3.75 6.85 12.46 9.184 19.133 5.127l.419-.254c2.553-1.553 5.482-2.373 8.47-2.373 2.814 0 5.601.752 8.064 2.174 5.127 2.96 8.229 8.484 8.095 14.417l-.011.49c-.177 7.807 6.199 14.183 14.006 14.006l.49-.011.366-.004c5.783 0 11.167 3.103 14.052 8.099 2.96 5.127 2.884 11.463-.2 16.534l-.254.419c-4.057 6.673-1.723 15.382 5.127 19.133l.43.236c5.205 2.849 8.439 8.297 8.439 14.218s-3.238 11.368-8.444 14.219z" fill="#f92174"/></g><g><g><circle cx="234.003" cy="192.155" fill="#fff" r="70.838"/></g><g><path d="m183.404 182.035c0-23.705 11.656-44.676 29.537-57.534-28.838 8.968-49.776 35.866-49.776 67.654 0 39.123 31.715 70.838 70.838 70.838 15.417 0 29.672-4.941 41.301-13.304-6.653 2.069-13.728 3.184-21.062 3.184-39.122 0-70.838-31.715-70.838-70.838z" fill="#dfe7f4"/></g><path d="m256.066 204.02c0-10.557-8.839-19.146-19.704-19.146h-4.719c-5.351 0-9.704-4.103-9.704-9.146s4.354-9.146 9.704-9.146h15.979c2.762 0 5-2.238 5-5s-2.238-5-5-5h-10.992v-7.187c0-2.762-2.238-5-5-5s-5 2.238-5 5v7.838c-8.44 2.163-14.69 9.623-14.69 18.495 0 10.557 8.839 19.146 19.704 19.146h4.719c5.351 0 9.704 4.103 9.704 9.146s-4.354 9.146-9.704 9.146h-15.979c-2.762 0-5 2.238-5 5s2.238 5 5 5h10.993v7.187c0 2.762 2.238 5 5 5s5-2.238 5-5v-7.838c8.439-2.164 14.689-9.624 14.689-18.495z" fill="#334973"/></g></g></g><g><g><g><g><path d="m27.645 225.917c27.639 1.353 45.608 29.757 35.837 56.648l-4.793 13.19-5.974-1.058c-26.695-4.729-41.208-34.316-29.304-59.739z" fill="#58ed9b"/></g><g><path d="m38.542 227.986c-3.417-1.155-7.06-1.881-10.898-2.069l-4.233 9.04c-11.904 25.423 2.609 55.01 29.304 59.739l5.974 1.058 3.49-9.605c-22.938-7.628-34.57-34.648-23.637-58.163z" fill="#24d1af"/></g></g><g><g><path d="m1.876 331.949c24.606-12.664 54.349 2.945 59.319 31.131l2.438 13.825-5.701 2.074c-25.474 9.267-52.816-9.097-55.206-37.079z" fill="#58ed9b"/></g><g><path d="m12.845 328.743-.047-.547c-3.688.696-7.359 1.919-10.923 3.753l.85 9.95c2.39 27.982 29.731 46.346 55.206 37.079l5.701-2.074-1.659-9.409c-23.573 4.604-46.927-12.988-49.128-38.752z" fill="#24d1af"/></g></g><g><g><path d="m32.517 436.697c14.98-23.288 48.527-24.655 66.906-2.728l9.015 10.755-3.9 4.65c-17.428 20.78-50.272 18.559-66.315-4.484z" fill="#58ed9b"/></g><g><path d="m41.258 428.699-.75-1.077c-3.011 2.52-5.717 5.541-7.99 9.075l5.705 8.194c16.044 23.043 48.887 25.264 66.315 4.484l3.9-4.65-5.648-6.738c-18.133 15.432-46.857 11.79-61.532-9.288z" fill="#24d1af"/></g></g><g><path d="m136.223 468.002c-.843 0-1.697-.214-2.48-.662-41.787-23.94-70.555-64.905-78.929-112.392-7.833-44.422 3.333-90.443 30.636-126.264 1.672-2.196 4.812-2.621 7.008-.945 2.196 1.674 2.619 4.812.945 7.008-25.614 33.605-36.09 76.784-28.741 118.465 7.857 44.555 34.848 82.99 74.052 105.45 4.446 2.347 2.428 9.527-2.491 9.34z" fill="#c7cfe1"/></g></g><g><g><g><path d="m440.361 225.917c-27.639 1.353-45.608 29.757-35.837 56.648l4.793 13.19 5.974-1.058c26.695-4.729 41.208-34.316 29.304-59.739z" fill="#58ed9b"/></g><g><path d="m429.463 227.986c3.417-1.155 7.06-1.881 10.898-2.069l4.233 9.04c11.904 25.423-2.609 55.01-29.304 59.739l-5.974 1.058-3.49-9.605c22.938-7.628 34.571-34.648 23.637-58.163z" fill="#24d1af"/></g></g><g><g><path d="m466.13 331.949c-24.606-12.664-54.349 2.945-59.319 31.131l-2.438 13.825 5.701 2.074c25.474 9.267 52.816-9.097 55.206-37.079z" fill="#58ed9b"/></g><g><path d="m455.16 328.743.047-.547c3.688.696 7.359 1.919 10.923 3.753l-.85 9.95c-2.39 27.982-29.731 46.346-55.206 37.079l-5.701-2.074 1.659-9.409c23.573 4.604 46.928-12.988 49.128-38.752z" fill="#24d1af"/></g></g><g><g><path d="m435.488 436.697c-14.98-23.288-48.527-24.655-66.906-2.728l-9.015 10.755 3.9 4.65c17.428 20.78 50.272 18.559 66.315-4.484z" fill="#58ed9b"/></g><g><path d="m426.747 428.699.75-1.077c3.011 2.52 5.717 5.541 7.99 9.075l-5.705 8.194c-16.043 23.043-48.887 25.264-66.315 4.484l-3.9-4.65 5.648-6.738c18.133 15.432 46.857 11.79 61.532-9.288z" fill="#24d1af"/></g></g><g><path d="m331.782 468.002c-4.92.187-6.935-6.994-2.49-9.34 39.204-22.46 66.194-60.896 74.052-105.45 7.349-41.681-3.127-84.859-28.741-118.465-1.674-2.196-1.251-5.334.945-7.008 2.197-1.674 5.333-1.25 7.008.945 27.303 35.82 38.469 81.842 30.636 126.264-8.374 47.486-37.142 88.451-78.929 112.392-.784.448-1.638.662-2.481.662z" fill="#c7cfe1"/></g></g></g></g><g><g><g><path d="m45.868 29.628 16.1-29.628 16.1 29.628 29.439 16.205-29.439 16.204-16.1 29.628-16.1-29.628-29.438-16.204z" fill="#fedf5b"/></g><g><path d="m72.901 20.12-10.933-20.12-16.1 29.628-29.438 16.205 19.952 10.983 23.653-13.02z" fill="#ffb53b"/></g></g><g><g><path d="m389.937 29.628 16.1-29.628 16.101 29.628 29.438 16.205-29.438 16.204-16.101 29.628-16.1-29.628-29.438-16.204z" fill="#fedf5b"/></g><g><path d="m416.971 20.12-10.934-20.12-16.1 29.628-29.438 16.205 19.953 10.983 23.653-13.02z" fill="#ffb53b"/></g></g></g></g></g></svg>