<svg id="Layer_1" enable-background="new 0 0 468 468" height="512" viewBox="0 0 468 468" width="512" xmlns="http://www.w3.org/2000/svg"><g><g><path d="m448 467.683h-223.3c-11.046 0-20-8.954-20-20v-427.366c0-11.046 8.954-20 20-20h223.3c11.046 0 20 8.954 20 20v427.366c0 11.046-8.954 20-20 20z" fill="#6262f4"/><path d="m221.029 447.354v-369.476h230.642v369.476c0 2.209-1.791 4-4 4h-222.642c-2.209 0-4-1.791-4-4z" fill="#fff"/><g><path d="m435.75 122.234h-1.325c-17.811 0-32.25-14.439-32.25-32.25v-38.64h65.825v38.641c0 17.811-14.439 32.249-32.25 32.249z" fill="#f761a6"/><path d="m369.925 122.234h-1.325c-17.811 0-32.25-14.439-32.25-32.25v-38.64h65.825v38.641c0 17.811-14.439 32.249-32.25 32.249z" fill="#ffd085"/><path d="m270.525 89.322v-37.978h65.825v37.978c0 18.177-14.735 32.912-32.912 32.912-18.177 0-32.913-14.735-32.913-32.912z" fill="#f761a6"/><path d="m238.275 122.234h-1.325c-17.811 0-32.25-14.439-32.25-32.25v-38.64h65.825v38.641c0 17.811-14.439 32.249-32.25 32.249z" fill="#ffd085"/></g><path d="m348.614 30.196h-24.237c-2.762 0-5-2.238-5-5s2.238-5 5-5h24.237c2.762 0 5 2.238 5 5s-2.238 5-5 5z" fill="#fff"/></g><g><g><g><path d="m162.81 229.565c-21.133 0-40.826 3.279-58.476 9.161-6.662-17.727-21.894-28.461-34.191-24.01-12.393 4.486-17.107 22.695-10.529 40.67.672 1.836 1.44 3.594 2.283 5.274-12.513 9.401-22.769 20.552-30.236 32.949l-27.69 5.969c-15.833 42.312 20.815 67.364 20.815 67.364s25.808-7.477 44.066-20.419c-.885 4.662-2.73 36.585-29.439 50.16 7.659 8.608 16.953 16.357 27.543 23.03l21.442 47.97h46.463l-3.827-24.454c10.236 1.653 20.866 2.534 31.779 2.534 14.729 0 28.949-1.594 42.368-4.547l-5.114 26.466h46.463c12.506-27.978 28.222-54.365 46.267-79.135 11.047-15.164 17.311-32.487 17.311-50.884-.004-59.7-65.95-108.098-147.298-108.098z" fill="#f761a6"/><g fill="#fff"><circle cx="80.137" cy="299.829" r="9.185"/><path d="m140.541 318.15c-4.722.182-6.9-6.561-2.82-9.132 23.933-16.971 56.477-16.975 80.374.058 2.25 1.602 2.776 4.723 1.175 6.973-1.6 2.25-4.722 2.776-6.973 1.176-20.505-14.625-48.452-14.564-68.945.058-.862.586-1.842.867-2.811.867z"/></g></g><g><circle cx="177.175" cy="219.21" fill="#fdbf38" r="51.86"/><path d="m180.542 214.738v-13.863c2.881.567 5.64 1.809 7.988 3.6.577.396 1.255.61 1.963.62 2.202 0 4.013-1.787 4.036-3.986.005-.966-.374-1.883-1.073-2.589-3.612-3.089-8.21-4.984-12.955-5.344v-4.527c0-1.643-1.316-2.98-2.924-2.98-1.692-.135-3.231 1.287-3.223 2.98v4.365c-9.325.816-15.829 6.815-15.829 14.615 0 9.432 7.477 12.272 15.829 14.546v15.887c-3.833-.604-7.423-2.237-10.39-4.729-.665-.528-1.512-.828-2.396-.846-2.157.149-3.825 1.955-3.796 4.11-.005.965.371 1.88 1.065 2.582 4.285 3.851 9.807 6.124 15.559 6.407v4.187c-.014 1.654 1.507 3.092 3.157 2.98 1.648 0 2.99-1.339 2.99-2.984v-4.279c10.045-.801 16.038-6.572 16.038-15.454-.002-10.055-8.265-13.176-16.039-15.298zm7.505 16.218c0 2.932-1.974 6.348-7.505 7.195v-14.141c4.537 1.345 7.542 3.055 7.505 6.946zm-13.651-30.417v12.611c-3.982-1.193-7.254-2.493-7.254-6.023 0-3.519 2.843-6.096 7.254-6.588z" fill="#fff"/></g></g><g><circle cx="337.024" cy="332.581" fill="#35c9ad" r="82.242"/><g fill="#fff"><path d="m300.277 374.058c-4.288.152-6.729-5.589-3.519-8.552l73.636-72.953c1.961-1.943 5.127-1.929 7.07.033 1.943 1.961 1.929 5.127-.033 7.07l-73.636 72.953c-.974.966-2.246 1.449-3.518 1.449z"/><g><circle cx="308.459" cy="306.316" r="15.308"/><circle cx="365.732" cy="358.846" r="15.308"/></g></g></g></g></g></svg>