<svg xmlns="http://www.w3.org/2000/svg" xmlns:xlink="http://www.w3.org/1999/xlink" id="Layer_1" height="512" viewBox="0 0 468 468" width="512"><clipPath id="SVGID_2_"><circle id="SVGID_1_" cx="61.392" cy="410.659" r="33.209"></circle></clipPath><g><g><g><g><g><g><g><path d="m397.237 40.505c-7.474-11.966-23.172-15.64-35.062-8.207-11.891 7.434-15.471 23.161-7.998 35.127 7.474 11.966 23.172 15.64 35.062 8.207 11.891-7.434 15.471-23.16 7.998-35.127z" fill="#131c46"></path></g></g></g><g><g><g><path d="m415.261 35.613c-1.981.076-2.843-2.786-1.091-3.797l12.337-7.712c.962-.602 2.229-.308 2.831.653.601.962.309 2.23-.653 2.831l-12.337 7.712c-.339.211-.715.313-1.087.313z" fill="#e2d2f7"></path></g></g></g><g><g><g><path d="m391.101 18.324c-1.299.015-2.312-1.247-2.005-2.513l3.251-14.214c.253-1.107 1.358-1.796 2.461-1.545 1.106.253 1.798 1.355 1.545 2.461l-3.251 14.214c-.217.952-1.064 1.597-2.001 1.597z" fill="#e2d2f7"></path></g></g></g><g><g><g><path d="m434.401 68.222c-.154 0-.311-.018-.468-.054l-14.197-3.309c-1.105-.257-1.792-1.362-1.534-2.467.257-1.105 1.363-1.793 2.467-1.534l14.197 3.309c2.343.48 1.89 4.123-.465 4.055z" fill="#e2d2f7"></path></g></g></g><g><g><g><path d="m336.353 171.266-5.785 3.616c-2.686 1.679-6.225.862-7.903-1.825l-33.145-53.068 15.509-9.696 33.147 53.073c1.678 2.685.861 6.222-1.823 7.9z" fill="#192f5c"></path></g></g></g><g><g><g><path d="m336.669 8.948c-6.584 32.008-25.919 59.866-53.535 77.13l-11.652 7.284c-6.893 4.309-8.969 13.426-4.636 20.363l7.453 11.932c4.333 6.937 13.433 9.067 20.326 4.758l11.652-7.284c27.615-17.264 61.118-22.439 92.759-14.328z" fill="#ffc31a"></path></g></g></g><g><g><g><path d="m279.701 101.581 11.652-7.284c26.563-16.607 45.46-43.018 52.721-73.493l-7.404-11.855c-6.584 32.008-25.919 59.866-53.535 77.13l-11.652 7.284c-6.893 4.309-8.969 13.427-4.636 20.363l7.453 11.933c1.658 2.654 4.016 4.597 6.679 5.753l-5.913-9.467c-4.334-6.938-2.258-16.055 4.635-20.364z" fill="#ffaf00"></path></g></g></g><g><g><g><g><path d="m283.135 86.078-11.652 7.284c-6.893 4.309-8.969 13.426-4.636 20.363l7.453 11.932c4.332 6.937 13.433 9.067 20.326 4.758l11.652-7.284c5.957-3.724 12.189-6.883 18.616-9.47l-25.091-40.173c-5.142 4.646-10.711 8.866-16.668 12.59z" fill="#ff8c24"></path></g></g></g></g><g><g><g><path d="m335.486 6.141c-3.815 2.355-4.986 7.364-2.611 11.166l56.936 91.16c2.357 3.775 7.322 4.935 11.108 2.597 3.815-2.355 4.986-7.364 2.611-11.166l-56.936-91.16c-2.357-3.774-7.321-4.935-11.108-2.597z" fill="#ff8f33"></path></g></g></g><g><g><g><path d="m346.594 8.739c-2.357-3.775-7.322-4.935-11.108-2.597-3.815 2.355-4.986 7.363-2.611 11.166l5.379 8.612c-1.203-3.495.116-7.481 3.396-9.506 3.066-1.893 7.648-1.101 10.533 1.272z" fill="#ff740d"></path></g></g></g></g></g></g><g><g><g><g><g><circle cx="185.934" cy="199.645" fill="#865acc" r="167.835"></circle></g></g></g><g><g><g><g><path d="m185.934 31.809c-92.693 0-167.835 75.142-167.835 167.835s75.143 167.836 167.835 167.836 167.836-75.143 167.836-167.835-75.143-167.836-167.836-167.836zm0 324.162c-86.199 0-156.326-70.128-156.326-156.326s70.128-156.327 156.326-156.327 156.326 70.128 156.326 156.326-70.127 156.327-156.326 156.327z" fill="#6a42ba"></path></g></g></g></g><g><g><g><path d="m185.934 340.41c77.618 0 140.765-63.147 140.765-140.765s-63.146-140.765-140.765-140.765-140.765 63.147-140.765 140.765 63.147 140.765 140.765 140.765z" fill="#fff"></path></g></g></g><g><g><g><path d="m185.934 58.88c-77.618 0-140.765 63.147-140.765 140.765s63.146 140.765 140.765 140.765 140.765-63.147 140.765-140.765-63.146-140.765-140.765-140.765zm0 270.021c-71.272 0-129.256-57.984-129.256-129.256s57.984-129.256 129.256-129.256 129.256 57.984 129.256 129.256c.001 71.272-57.983 129.256-129.256 129.256z" fill="#e2d2f7"></path></g></g></g><g><g><g><path d="m185.934 313.339c62.692 0 113.695-51.003 113.695-113.695s-51.003-113.694-113.695-113.694-113.694 51.003-113.694 113.695 51.003 113.694 113.694 113.694z" fill="#865acc"></path></g></g></g><g><g><g><g><path d="m185.934 85.95c-62.692 0-113.695 51.003-113.695 113.695s51.003 113.695 113.695 113.695 113.695-51.003 113.695-113.695-51.003-113.695-113.695-113.695zm0 215.881c-56.346 0-102.186-45.84-102.186-102.186s45.84-102.187 102.186-102.187 102.186 45.841 102.186 102.187-45.84 102.186-102.186 102.186z" fill="#6a42ba"></path></g></g></g></g><g><g><g><path d="m185.934 286.269c47.765 0 86.625-38.859 86.625-86.625s-38.859-86.625-86.625-86.625-86.624 38.86-86.624 86.626 38.859 86.624 86.624 86.624z" fill="#fff"></path></g></g></g><g><g><g><path d="m185.934 113.02c-47.765 0-86.625 38.859-86.625 86.625s38.859 86.625 86.625 86.625 86.625-38.859 86.625-86.625-38.86-86.625-86.625-86.625zm0 161.74c-41.419 0-75.116-33.697-75.116-75.116s33.697-75.116 75.116-75.116 75.116 33.697 75.116 75.116c0 41.42-33.696 75.116-75.116 75.116z" fill="#e2d2f7"></path></g></g></g><g><g><g><path d="m185.934 259.199c32.838 0 59.554-26.716 59.554-59.554s-26.716-59.554-59.554-59.554-59.554 26.716-59.554 59.554 26.716 59.554 59.554 59.554z" fill="#865acc"></path></g></g></g><g><g><g><g><path d="m185.934 140.09c-32.838 0-59.554 26.716-59.554 59.554 0 32.839 26.716 59.555 59.554 59.555s59.554-26.716 59.554-59.555c.001-32.838-26.715-59.554-59.554-59.554zm0 107.6c-26.493 0-48.046-21.553-48.046-48.046s21.553-48.046 48.046-48.046 48.046 21.554 48.046 48.046-21.553 48.046-48.046 48.046z" fill="#6a42ba"></path></g></g></g></g><g><g><g><path d="m185.934 232.129c17.912 0 32.484-14.572 32.484-32.484s-14.572-32.484-32.484-32.484-32.484 14.572-32.484 32.484 14.573 32.484 32.484 32.484z" fill="#fff"></path></g></g></g><g><g><g><path d="m185.934 167.16c-17.912 0-32.484 14.572-32.484 32.484s14.572 32.484 32.484 32.484 32.484-14.572 32.484-32.484-14.572-32.484-32.484-32.484zm0 53.46c-11.566 0-20.976-9.409-20.976-20.975s9.41-20.976 20.976-20.976 20.976 9.41 20.976 20.976-9.41 20.975-20.976 20.975z" fill="#e2d2f7"></path></g></g></g></g><g><g><g><g><path d="m34.023 47.741c-21.657-43.478 53.295-50.436 43.468 43.471-96.467 15.187-84.98-66.845-43.468-43.471z" fill="#f955af"></path></g></g></g><g><g><g><path d="m14.078 44.478c-22.012 7.677-14.635 59.021 63.413 46.734.304-2.906.526-5.714.673-8.429-54.461 5.577-69.999-22.332-64.086-38.305z" fill="#f7199e"></path></g></g></g><g><g><g><path d="m185.934 201.699c-.526 0-1.052-.201-1.453-.602l-164.1-164.1c-.803-.802-.803-2.103 0-2.905.802-.803 2.104-.803 2.905 0l164.1 164.1c1.311 1.221.306 3.569-1.452 3.507z" fill="#e2d2f7"></path></g></g></g></g></g><g><g><g><g><path d="m419.469 289.496s-90.414 7.313-74.171-70.591c4.606-22.094-.89-44.997-.89-44.997s-8.498-26.262 45.143-33.161" fill="#333"></path></g></g></g><g><g><g><path d="m226.34 350.732h-19.019l51.399 117.268h19.019z" fill="#ffc31a"></path></g><g><path d="m216.912 350.732h-9.591l51.399 117.268h9.591z" fill="#ffaf00"></path></g><g><path d="m225.108 350.732h-19.019l-51.399 117.268h19.019z" fill="#ffc31a"></path></g><g><path d="m225.108 350.732h-9.591l-51.399 117.268h9.591z" fill="#ffaf00"></path></g><g><g><g><path d="m128.999 346.938h175.664v20.428h-175.664z" fill="#ff8f33"></path></g></g></g><g><g><g><g><path d="m128.998 346.938h11.509v20.428h-11.509z" fill="#ff740d"></path></g></g></g></g><g><g><g><path d="m275.601 347.006h-69.273c-2.429 0-4.669-1.313-5.857-3.432l-32.356-57.754c-1.812-3.235-.659-7.326 2.576-9.138 3.235-1.812 7.326-.659 9.138 2.576l30.433 54.322h65.339z" fill="#131c46"></path></g></g></g><g><g><g><path d="m206.225 338.778-34.967-62.415-.599.336c-3.217 1.802-4.364 5.872-2.562 9.089l32.374 57.786c1.188 2.119 3.427 3.432 5.857 3.432h69.273v-4.795h-63.519c-2.429-.001-4.669-1.313-5.857-3.433z" fill="#0b1226"></path></g></g></g></g><g><g><g><path d="m448.479 468c-.296-15.206-.454-30.42-.031-45.623.975-35.077-21.33-62.176-21.33-62.176l-32.291-9.469-46.555 3.885v113.383z" fill="#131c46"></path></g></g></g><g><g><g><path d="m448.448 422.377c.975-35.077-21.33-62.176-21.33-62.176l-32.291-9.469-10.452.872 29.317 8.597s22.305 27.099 21.33 62.176c-.423 15.203-.265 30.417.031 45.623h13.427c-.297-15.206-.455-30.42-.032-45.623z" fill="#0b1226"></path></g></g></g></g><g><g><g><path d="m381.559 242.775c1.315-.915 2.099-2.416 2.099-4.018v-1.526c0-5.2-2.13-10.177-5.894-13.764-1.3-1.239-2.33-2.194-2.442-2.222l10.44-14.163 17.076.971 20.394 34.557s-15.862 9.55-16.914 10.197-25.493-5.503-25.493-5.503z" fill="#f9a395"></path></g></g></g><g><g><g><path d="m354.605 164.512s-8.417 59.727 14.891 60.05c23.308.324 31.401-38.199 31.401-38.199" fill="#ffc0b3"></path></g></g></g><g><g><g><path d="m425.823 239.291s-27.567 8.877-44.264 3.484c-7.23 6.6-26.952 26.164-31.163 46.693-5.18 25.25-1.942 69.721-1.942 69.721s49.018 14.361 78.685 2.376c9.747-3.938 16.607-12.804 18.342-23.172 6.342-37.915.488-102.897-19.658-99.102z" fill="#f955af"></path></g></g></g><g><g><g><path d="m425.823 239.291s-2.466.792-6.353 1.757c14.376 10.74 18.109 64.311 12.583 97.344-1.735 10.369-8.594 19.235-18.342 23.172-6.899 2.787-14.846 4.148-22.978 4.598 12.515.618 25.716-.279 36.405-4.598 9.747-3.938 16.607-12.804 18.342-23.172 6.343-37.914.489-102.896-19.657-99.101z" fill="#f7199e"></path></g></g></g><g><g><g><g><path d="m353.249 343.266-18.391-10.096s-22.466 1.997-40.882-.695c-5.382-4.491-19.33-18.542-32.767-13.414-9.385 3.582-13.911 11.511-15.097 13.719-.326.606-.381 1.335-.098 1.962.489 1.083 2.017 2.021 6.686-.675-.524 1.176-.125 1.905.482 2.353.802.592 1.894.622 2.759.125 6.67-3.837 11.259-2.667 12.909-1.996.411.167.767.445 1.042.792 9.581 12.093 20.858 15.301 23.485 15.907l.001-.019c32.987 6.423 49.917 7.98 49.917 7.98z" fill="#ffc0b3"></path></g></g></g><g><g><g><path d="m253.445 333.577c-.114 0-.229-.038-.324-.116-.22-.18-.253-.503-.074-.722.21-.257 5.24-6.308 13.928-6.678.282-.018.524.208.535.491.012.283-.208.523-.491.535-8.215.35-13.128 6.241-13.176 6.301-.101.125-.249.189-.398.189z" fill="#f9a395"></path></g></g></g><g><g><g><g><path d="m393.613 279.352s-19.285 36.461-47.275 47.972c-4.686 1.927-9.493 3.278-14.252 4.209l11.683 35.747c47.92.281 77.036-65.349 77.036-65.349z" fill="#f955af"></path></g></g></g></g><g><g><g><g><path d="m410.684 300.923c-9.565 17.359-34.401 55.139-70.067 56.71l3.153 9.647c41.28.242 68.607-48.427 75.387-61.919.998-1.985.485-4.397-1.224-5.816-2.315-1.921-5.798-1.256-7.249 1.378z" fill="#f7199e"></path></g></g></g></g></g><path d="m457.776 237.146c-1.961-3.123-2.934-6.768-2.846-10.455.183-7.673-2.839-12.307-6.138-15.07-3.991-3.343-6.607-8.124-6.911-13.322-.553-9.435-6.024-16.415-9.408-19.87-1.883-1.922-3.318-4.228-4.237-6.757l-5.427-14.931c-12.619-28.919-50.059-13.302-69.907-2.378-6.375 3.508-6.606 12.609-.401 16.409 8.42 5.157 20.394 11.04 33.419 12.936 2.996-2.101 7.131-3.094 9.737 4.252 3.262 9.197-.622 14.849-4.403 16.087.219.546.47 1.081.778 1.592 2.652 4.394 2.802 8.332 2.802 8.332-1.466 89.068 50.792 67.334 50.792 67.334 28.379-11.649 18.391-34.219 12.15-44.159z" fill="#333"></path><g><g><g><path d="m457.776 237.146c-1.961-3.123-2.934-6.768-2.846-10.455.183-7.673-2.839-12.307-6.138-15.07-3.991-3.343-6.607-8.124-6.911-13.322-.553-9.435-6.024-16.415-9.408-19.87-1.883-1.922-3.318-4.228-4.237-6.757l-5.427-14.93c-12.619-28.919-55.15-15.455-70.45-3.042-2.817 2.285-6.486 5.876-6.575 9.054 20.417-6.611 54.186-20.467 65.516 5.497l5.427 14.93c.919 2.529 2.355 4.835 4.237 6.757 3.384 3.455 8.855 10.435 9.408 19.87.305 5.197 2.921 9.978 6.911 13.322 3.298 2.763 6.321 7.396 6.138 15.07-.088 3.686.885 7.332 2.846 10.455 4.191 6.675 10.071 19.045 4.889 29.979 21.427-12.156 12.412-32.262 6.62-41.488z" fill="#212121"></path></g></g></g></g><g><g><g><g><path d="m113.878 420.039v-18.76l-12.295-1.785c-.914-3.283-2.218-6.402-3.864-9.305l7.431-9.943-13.29-13.265-9.961 7.417c-2.909-1.643-6.033-2.945-9.322-3.857l-1.789-12.273h-18.793l-1.789 12.273c-3.289.912-6.414 2.214-9.322 3.857l-9.961-7.417-13.29 13.265 7.431 9.943c-1.646 2.903-2.95 6.022-3.864 9.305l-12.295 1.785v18.76l12.295 1.785c.914 3.283 2.218 6.402 3.864 9.305l-7.431 9.943 13.29 13.265 9.961-7.418c2.909 1.643 6.033 2.945 9.322 3.857l1.789 12.273h18.794l1.789-12.273c3.289-.912 6.414-2.214 9.322-3.857l9.961 7.418 13.29-13.265-7.431-9.943c1.646-2.903 2.95-6.022 3.864-9.305z" fill="#131c46"></path></g></g></g><g><g><g><g><circle cx="61.392" cy="410.659" fill="#fff" r="33.209"></circle></g></g></g><g><g><g><g><path d="m38.809 410.659c0-16.532 12.082-30.237 27.896-32.781-1.731-.278-3.504-.428-5.313-.428-18.341 0-33.209 14.868-33.209 33.209s14.868 33.209 33.209 33.209c1.809 0 3.583-.15 5.313-.428-15.814-2.545-27.896-16.25-27.896-32.781z" fill="#f0e8f9"></path></g></g></g></g><g><g clip-path="url(#SVGID_2_)"><g><g><g><path d="m78.41 448.58c-1.135 0-2.055-.92-2.055-2.055v-47.973c0-1.135.92-2.055 2.055-2.055s2.055.92 2.055 2.055v47.973c0 1.135-.92 2.055-2.055 2.055z" fill="#52c1a1"></path></g></g></g><g><g><g><path d="m60.699 448.58c-1.135 0-2.055-.92-2.055-2.055v-39.118c0-1.135.92-2.055 2.055-2.055s2.055.92 2.055 2.055v39.118c0 1.135-.92 2.055-2.055 2.055z" fill="#52c1a1"></path></g></g></g><g><g><g><path d="m42.987 448.58c-1.135 0-2.055-.92-2.055-2.055v-30.262c0-1.135.92-2.055 2.055-2.055s2.055.92 2.055 2.055v30.262c0 1.135-.92 2.055-2.055 2.055z" fill="#52c1a1"></path></g></g></g></g></g></g></g></g></svg>