<svg xmlns="http://www.w3.org/2000/svg" id="Layer_1" height="512" viewBox="0 0 468 468" width="512"><g><g><g><g><g><path d="m350.529 346.672 5.81 1.231-6.719 1.906c-3.539 1.004-6.241 3.869-7.035 7.461l-1.246 5.633-1.246-5.633c-.794-3.592-3.496-6.457-7.035-7.461l-6.719-1.906 5.81-1.231c3.762-.797 6.733-3.681 7.643-7.417l1.547-6.352 1.547 6.352c.91 3.736 3.882 6.619 7.643 7.417z" fill="#ff8a80"></path></g></g><g><g><path d="m135.85 346.672 5.81 1.231-6.719 1.906c-3.539 1.004-6.241 3.869-7.035 7.461l-1.246 5.633-1.246-5.633c-.794-3.592-3.496-6.457-7.035-7.461l-6.719-1.906 5.81-1.231c3.762-.797 6.733-3.681 7.643-7.417l1.547-6.352 1.547 6.352c.91 3.736 3.882 6.619 7.643 7.417z" fill="#ad9cdb"></path></g></g></g><g><g><g><circle cx="419" cy="245.943" fill="#ad9cdb" r="8.167"></circle></g></g><g><g><circle cx="49" cy="245.943" fill="#ff8a80" r="8.167"></circle></g></g></g></g><g><g><g><path d="m90.1 57.44c-.637 0-1.284-.123-1.909-.381l-19.48-8.059c-2.552-1.055-3.765-3.979-2.709-6.531 1.055-2.552 3.979-3.765 6.531-2.709l19.479 8.058c5.025 1.893 3.347 9.809-1.912 9.622z" fill="#c7cfe1"></path></g><g><path d="m73.044 183.546c-5.261.187-6.935-7.73-1.913-9.622l19.479-8.058c2.551-1.058 5.476.157 6.531 2.709s-.157 5.476-2.709 6.531l-19.479 8.058c-.625.259-1.272.382-1.909.382z" fill="#c7cfe1"></path></g><g><path d="m397.376 177.71c5.261.187 6.935-7.73 1.913-9.622l-19.479-8.058c-2.554-1.056-5.477.157-6.531 2.709-1.056 2.552.157 5.476 2.709 6.531l19.479 8.058c.625.259 1.272.382 1.909.382z" fill="#c7cfe1"></path></g><g><path d="m375.48 51.604c-5.261.187-6.935-7.73-1.913-9.622l19.479-8.058c2.55-1.058 5.476.157 6.531 2.709 1.056 2.552-.157 5.476-2.709 6.531l-19.479 8.058c-.624.259-1.272.382-1.909.382z" fill="#c7cfe1"></path></g><g><path d="m79.556 116.703h-42.17c-2.762 0-5-2.239-5-5s2.238-5 5-5h42.17c2.762 0 5 2.239 5 5s-2.239 5-5 5z" fill="#c7cfe1"></path></g><g><path d="m430.614 110.386h-42.17c-2.762 0-5-2.239-5-5s2.238-5 5-5h42.17c2.762 0 5 2.239 5 5s-2.238 5-5 5z" fill="#c7cfe1"></path></g></g><g><g><g><path d="m338.684 103.927c0-57.358-49.092-103.855-104.684-103.855s-104.684 46.497-104.684 103.855c0 31.422 16.04 59.582 38.468 78.624 12.118 10.289 19.067 25.43 19.067 41.353v56.306h94.295v-56.304c0-15.923 6.95-31.065 19.068-41.354 22.429-19.042 38.47-47.201 38.47-78.625z" fill="#fedf5b"></path></g><g><path d="m206.851 218.904c0-15.922-6.95-31.064-19.068-41.353-22.428-19.043-38.468-47.202-38.468-78.624 0-45.08 30.328-83.446 70.299-97.808-49.405 7.164-90.299 50.459-90.299 102.808 0 31.422 16.04 59.582 38.468 78.624 12.118 10.289 19.068 25.43 19.068 41.353v56.306h94.295v-5h-74.295z" fill="#ffb53b"></path></g><g><path d="" fill="none" stroke="#333" stroke-linejoin="round" stroke-miterlimit="10" stroke-width="10"></path></g></g><g><g><g><path d="m264.922 105.513v151.148c0 8.858-6.912 16.039-15.438 16.039h-30.969c-8.526 0-15.438-7.181-15.438-16.039v-151.148l30.923 20.443z" fill="#f69"></path></g><g><path d="m234 125.956v146.745h15.484c8.526 0 15.438-7.181 15.438-16.039v-151.149z" fill="#f92174"></path></g></g><g><g><path d="m234 54.256 30.922 51.257-30.922 20.443-30.922-20.443z" fill="#dfe7f4"></path></g><g><path d="m234 54.255-21.001 34.812 42-.002z" fill="#f69"></path></g></g></g><g><g><g><path d="m389.995 431.328c-5.006 0-9.787.944-14.184 2.647-2.695-5.312-29.206-53.623-87.537-22.534-11.628-14.824-31.588-24.611-54.274-24.611-22.685 0-42.645 9.787-54.273 24.611-58.33-31.088-84.842 17.222-87.536 22.534-4.398-1.702-9.178-2.647-14.184-2.647-18.758 0-34.418 13.12-38.154 30.601h388.297c-3.737-17.482-19.398-30.601-38.155-30.601z" fill="#9595fc"></path></g></g><g><g><path d="m92.19 453.974c2.695-5.312 29.206-53.622 87.536-22.534 11.628-14.824 31.588-24.611 54.273-24.611s42.645 9.787 54.274 24.611c58.331-31.089 84.843 17.221 87.537 22.534 4.398-1.702 9.178-2.647 14.184-2.647 10.395 0 19.833 4.033 26.823 10.601h11.33c-3.736-17.481-19.396-30.601-38.154-30.601-5.006 0-9.787.944-14.184 2.647-2.695-5.312-29.206-53.623-87.537-22.534-11.628-14.824-31.588-24.611-54.274-24.611-22.685 0-42.645 9.787-54.273 24.611-58.33-31.088-84.842 17.222-87.536 22.534-4.398-1.702-9.178-2.647-14.184-2.647-18.758 0-34.418 13.12-38.154 30.601h11.33c6.99-6.567 16.429-10.601 26.824-10.601 5.006.001 9.787.945 14.185 2.647z" fill="#7676ff"></path></g></g></g><g><path d="m184.412 433.237h14.588c8.284 0 15-6.716 15-15v-111.683h40v111.683c0 8.284 6.716 15 15 15h15.294" fill="#9595fc"></path></g><g><g><path d="m200.778 284.85c-.387 1.951-.599 3.961-.599 6.018 0 17.785 15.142 32.203 33.821 32.203s33.821-14.418 33.821-32.203c0-2.058-.211-4.068-.599-6.018z" fill="#334973"></path></g><g><path d="m220.446 284.85h-19.668c-.388 1.951-.599 3.961-.599 6.018 0 17.785 15.142 32.203 33.821 32.203 9.808 0 18.637-3.979 24.814-10.33-1.573.214-3.179.33-4.814.33-17.262.001-31.493-12.316-33.554-28.221z" fill="#1f3259"></path></g></g><g><g><path d="m278.293 234.11h-88.585c-8.003 0-14.491 6.488-14.491 14.491 0 8.003 6.488 14.491 14.491 14.491h88.585c8.003 0 14.491-6.488 14.491-14.491 0-8.003-6.488-14.491-14.491-14.491z" fill="#334973"></path></g><g><path d="m195.216 234.11h-5.509c-8.003 0-14.491 6.488-14.491 14.491s6.488 14.491 14.491 14.491h34.491c-16.006.001-28.982-12.975-28.982-28.982z" fill="#1f3259"></path></g></g><g><g><path d="m278.293 263.11h-88.585c-8.003 0-14.491 6.488-14.491 14.491 0 8.003 6.488 14.491 14.491 14.491h88.585c8.003 0 14.491-6.488 14.491-14.491 0-8.003-6.488-14.491-14.491-14.491z" fill="#dfe7f4"></path></g><g><path d="m195.216 263.11h-5.509c-8.003 0-14.491 6.488-14.491 14.491s6.488 14.491 14.491 14.491h34.491c-16.006.001-28.982-12.975-28.982-28.982z" fill="#c7cfe1"></path></g></g></g><g><path d="m463 467.928h-458c-2.762 0-5-2.239-5-5s2.238-5 5-5h458c2.762 0 5 2.239 5 5s-2.238 5-5 5z" fill="#334973"></path></g></g></g></svg>