<svg id="Layer_1" enable-background="new 0 0 468 468" height="512" viewBox="0 0 468 468" width="512" xmlns="http://www.w3.org/2000/svg"><g><g><g><g><g><g><path d="m321.546 265.549c.222-1.153.347-2.34.347-3.557 0-10.315-8.342-18.676-18.631-18.676-10.29 0-18.631 8.361-18.631 18.676 0 1.217.125 2.405.347 3.557h-50.95v122.013h138.487v-122.013z" fill="#f0e8f9"/></g></g></g><g><g><g><path d="m234.028 376.289h138.487v11.273h-138.487z" fill="#e2d2f7"/></g></g></g><g><g><g><path d="m234.028 265.549v-122.012h138.487v122.013h-50.959c.222 1.152.347 2.34.347 3.557 0 10.314-8.342 18.676-18.631 18.676s-18.631-8.361-18.631-18.676c0-1.217.125-2.405.347-3.557z" fill="#61ceac"/></g></g></g><g><g><g><path d="m234.022 265.549h-50.968c.222-1.152.347-2.34.347-3.557 0-10.314-8.342-18.676-18.631-18.676-10.29 0-18.631 8.361-18.631 18.676 0 1.217.125 2.405.347 3.557h-50.95v122.013h138.487v-42.678c1.15.222 2.334.348 3.549.348 10.29 0 18.631-8.361 18.631-18.676 0-10.314-8.341-18.676-18.631-18.676-1.214 0-2.399.125-3.549.348z" fill="#61ceac"/></g></g></g><g><g><g><path d="m106.808 265.55h-11.273v122.012h138.486.001v-11.273h-127.214z" fill="#52c1a1"/></g></g></g><g><g><g><path d="m234.022 265.549h-50.968c.222-1.152.347-2.34.347-3.557 0-10.314-8.342-18.676-18.631-18.676-10.29 0-18.631 8.361-18.631 18.676 0 1.217.125 2.405.347 3.557h-50.95v-122.012h138.487v42.678c1.15-.222 2.334-.348 3.549-.348 10.29 0 18.631 8.362 18.631 18.676s-8.341 18.676-18.631 18.676c-1.214 0-2.399-.125-3.549-.348z" fill="#f0e8f9"/></g></g></g><g><g><g><path d="m95.535 143.537h11.273v122.013h-11.273z" fill="#e2d2f7"/></g></g></g></g><g><g><g><g><path d="m304.203 88.194c0-38.193-33.062-69.154-70.5-69.154s-70.5 30.961-70.5 69.154c0 20.923 10.802 39.673 25.906 52.353 8.161 6.851 12.841 16.933 12.841 27.536v13.216h63.504v-13.215c0-10.603 4.681-20.685 12.842-27.536 15.104-12.68 25.907-31.43 25.907-52.354z" fill="#ffc31a"/></g></g></g><g><g><g><path d="m200.273 140.547c-15.104-12.68-25.906-31.43-25.906-52.353 0-36.262 29.807-65.984 64.864-68.899-1.867-.155-3.744-.255-5.637-.255-37.439 0-70.5 30.961-70.5 69.154 0 20.923 10.802 39.674 25.906 52.353 8.161 6.851 12.841 16.933 12.841 27.536v13.216h11.273v-13.216c0-10.602-4.681-20.685-12.841-27.536z" fill="#ffaf00"/></g></g></g><g><g><g><g><g><ellipse cx="233.407" cy="87.62" fill="#fff" rx="37.532" ry="37.532" transform="matrix(1 -.003 .003 1 -.248 .665)"/></g></g></g><path d="m245.448 95.889c.187-5.634-5.019-10.266-10.6-10.248l-2.815-.046c-3.428.011-6.755-2.699-6.661-6.173.058-3.346 3.124-6.035 6.878-5.957l9.532.156c1.14.025 2.017-.862 2.035-1.969.018-1.106-.863-2.017-1.969-2.035l-6.121-.101.087-4.958c.02-1.106-.861-2.018-1.967-2.037-1.133.007-2.017.861-2.037 1.967l-.087 4.99c-5.669.197-10.261 4.51-10.355 9.873-.187 5.634 5.018 10.266 10.599 10.248l2.815.046c3.428-.011 6.756 2.699 6.661 6.173-.059 3.347-3.119 6.008-6.878 5.957l-9.532-.156c-1.086.006-2.016.864-2.034 1.969-.019 1.106.863 2.017 1.969 2.035l6.121.101-.087 4.958c-.02 1.106.861 2.018 1.967 2.037h.036c1.09 0 1.982-.873 2.002-1.967l.087-4.99c5.667-.197 10.259-4.51 10.354-9.873z" fill="#ff740d"/></g></g><g><g><g><path d="m206.739 194.209c-.314 1.595-.486 3.239-.486 4.921 0 14.544 12.289 26.334 27.449 26.334s27.449-11.79 27.449-26.334c0-1.683-.171-3.326-.486-4.921z" fill="#ffc31a"/></g></g></g><g><g><g><path d="m217.526 199.131c0-1.683.171-3.327.486-4.922h-11.273c-.314 1.595-.486 3.239-.486 4.922 0 14.544 12.289 26.334 27.449 26.334 1.932 0 3.817-.194 5.637-.558-12.456-2.495-21.813-13.086-21.813-25.776z" fill="#ffaf00"/></g></g></g><g><g><g><path d="m265.809 173.609h-64.214c-5.531 0-10.014 4.484-10.014 10.014v3.525c0 5.531 4.484 10.014 10.014 10.014h64.214c5.531 0 10.014-4.484 10.014-10.014v-3.525c0-5.53-4.483-10.014-10.014-10.014z" fill="#ff8f33"/></g></g></g><g><g><g><path d="m210.383 187.768c-5.196 0-9.408-4.212-9.408-9.408v-4.738c0-.005.001-.009.001-.013-5.19.007-9.395 4.216-9.395 9.407v4.738c0 5.195 4.212 9.408 9.408 9.408h65.427c5.192 0 9.4-4.205 9.407-9.395-.004 0-.008.001-.013.001z" fill="#ff740d"/></g></g></g></g><g><g><g><g><g><path d="m175.949 19.543c-.509 0-1.019-.194-1.409-.58l-15.428-15.285c-.786-.778-.791-2.046-.013-2.831.778-.787 2.046-.791 2.832-.014l15.428 15.285c1.285 1.187.307 3.486-1.41 3.425z" fill="#131c46"/></g></g></g><g><g><g><path d="m162.36 46.592c-.509 0-1.019-.194-1.409-.58l-15.428-15.285c-.786-.778-.791-2.046-.013-2.831.779-.787 2.046-.791 2.832-.014l15.428 15.285c1.285 1.188.307 3.487-1.41 3.425z" fill="#131c46"/></g></g></g></g><g><g><g><g><path d="m291.346 19.543c-1.717.061-2.695-2.238-1.409-3.425l15.428-15.285c.785-.776 2.052-.773 2.831.014.778.785.772 2.053-.014 2.831l-15.428 15.285c-.389.386-.899.58-1.408.58z" fill="#131c46"/></g></g></g><g><g><g><path d="m304.935 46.592c-1.717.061-2.695-2.238-1.409-3.425l15.428-15.285c.785-.776 2.052-.773 2.831.014.778.785.772 2.053-.014 2.831l-15.428 15.285c-.389.387-.898.58-1.408.58z" fill="#131c46"/></g></g></g></g></g></g><g><g><g><g><g><g><g><path d="" fill="#6e6eff"/></g></g></g><g><g><g><path d="m149.959 440.909c29.377-12.599 19.749-61.069 10.908-90.027-4.131-13.53-15.341-23.704-29.21-26.495l-23.316-4.691-16.297.212-16.297-.212-23.186 4.681c-13.858 2.798-25.056 12.969-29.185 26.49-8.843 28.956-18.479 77.441 10.903 90.042" fill="#865acc"/></g></g></g><g><g><g><path d="m92.044 319.908-16.297-.211-23.186 4.681c-13.858 2.798-25.056 12.968-29.185 26.49-8.843 28.956-18.479 77.441 10.903 90.042h1.841c-19.94-17.234-11.325-59.229-3.349-85.345 4.129-13.521 15.327-23.692 29.185-26.49l23.186-4.681 16.297.211 6.903-4.909z" fill="#6a42ba"/></g></g></g><g><g><g><path d="m76.337 304.035v22.248c0 8.746 7.119 15.822 15.865 15.768 8.663-.053 15.661-7.085 15.671-15.748l.027-22.267" fill="#f9a395"/></g></g></g><g><g><g><g><path d="m44.581 410.724c-6.579 1.083-17.108 4.538-27.152 10.971 2.89 8.594 8.168 15.48 16.875 19.214l18.919-1.993c-3.079-9.541-7.128-22.122-7.241-22.455-.639-1.878-1.1-3.798-1.401-5.737z" fill="#ffc0b3"/></g></g></g><g><g><g><path d="m34.303 440.909 1.634-.172c-6.38-5.616-9.786-13.801-11.213-23.184-2.419 1.214-4.871 2.589-7.295 4.142 2.89 8.594 8.168 15.481 16.874 19.214z" fill="#f9a395"/></g></g></g><g><g><g><path d="m139.657 410.724c6.579 1.083 17.108 4.538 27.152 10.971-2.89 8.594-8.168 15.48-16.875 19.214l-18.919-1.993c3.079-9.541 7.128-22.122 7.241-22.455.638-1.878 1.099-3.798 1.401-5.737z" fill="#ffc0b3"/></g></g></g></g></g><g><g><g><g><path d="m143.319 400.715c-.577 0-1.149-.248-1.545-.727-7.147-8.654-9.343-28.904-9.434-29.762-.115-1.1.682-2.084 1.782-2.201 1.096-.111 2.085.682 2.201 1.782.021.198 2.161 19.906 8.538 27.63 1.098 1.241.087 3.33-1.542 3.278z" fill="#6a42ba"/></g></g></g><g><g><g><path d="m40.918 400.715c-1.629.052-2.639-2.037-1.543-3.277 6.378-7.724 8.518-27.432 8.538-27.63.116-1.1 1.107-1.89 2.201-1.782 1.1.116 1.898 1.101 1.782 2.201-.09.857-2.287 21.107-9.434 29.762-.395.477-.967.726-1.544.726z" fill="#6a42ba"/></g></g></g><g><g><g><g><path d="m145.108 389.174h-105.356c-5.539 0-9.876 4.768-9.352 10.282l5.672 59.784c.458 4.823 4.508 8.507 9.352 8.507h94.747c4.889 0 8.96-3.749 9.363-8.621l4.936-59.784c.452-5.476-3.869-10.168-9.362-10.168z" fill="#131c46"/></g></g></g><g><g><g><g><path d="m45.731 430.952-3.964-41.778h-2.015c-5.539 0-9.876 4.768-9.353 10.282l5.672 59.784c.458 4.823 4.508 8.507 9.353 8.507h94.747c4.889 0 8.96-3.749 9.363-8.622l.219-2.652h-75.964c-14.534 0-26.685-11.052-28.058-25.521z" fill="#0b1226"/></g></g></g></g><g><g><g><circle cx="92.367" cy="425.817" fill="#fff" r="14.618"/></g></g></g><g><g><g><g><path d="m87.161 425.817c0-6.424 4.15-11.868 9.912-13.829-1.478-.503-3.057-.789-4.706-.789-8.073 0-14.618 6.545-14.618 14.618s6.545 14.618 14.618 14.618c1.649 0 3.228-.285 4.706-.789-5.761-1.961-9.912-7.405-9.912-13.829z" fill="#e2d2f7"/></g></g></g></g></g></g></g><g><g><g><g><path d="" fill="#6e6eff"/></g></g></g><g><g><g><path d="m119.958 288.203s19.787-31.211.018-49.157c-6.834-6.204-18.047-10.113-27.286-9.616-7.852.422-18.682 4.146-24.655 12.631-.778-1.462-2.723-1.823-3.982-.741-19.956 17.153 1.184 44.81 1.184 44.81" fill="#333"/></g></g></g><g><g><g><path d="m72.508 246.017c1.259-1.082 3.203-.721 3.982.741 5.973-8.485 16.803-12.209 24.655-12.631 5.265-.283 11.169.868 16.541 3.056-6.877-5.105-16.723-8.199-24.996-7.754-7.852.422-18.682 4.146-24.655 12.631-.778-1.462-2.723-1.823-3.982-.741-19.956 17.153 1.184 44.809 1.184 44.809l5.524.21c-5.005-8.533-13.28-27.404 1.747-40.321z" fill="#212121"/></g></g></g><path d="m122.498 278.238c-1.239-1.072-2.88-.089-4.27 1.241v-10.579c0-.083-.049-13.371-15.698-7.885-6.74 2.362-14.132 2.362-20.872 0-13.427-4.707-15.368 4.403-15.649 7.14v11.325c-1.39-1.33-3.031-2.312-4.27-1.241-5.704 4.932-.769 17.205 4.287 17.81.347 14.079 11.86 25.387 26.022 25.387h.14c14.162 0 25.676-11.309 26.022-25.387 5.057-.606 9.993-12.878 4.288-17.811z" fill="#ffc0b3"/></g></g><g><g><g><g><g><path d="m430.4 304.425-9.68-18.783c-2.799-5.432-4.142-11.497-3.895-17.603.164-4.073-.339-8.16-1.6-12.036-11.173-34.357-49.43-20.247-49.43-20.247s-29.094-2.781-29.736 38.079-27.81 33.372-14.119 69.953 103.54 2.353 103.54 2.353 24.387-16.901 4.92-41.716z" fill="#333"/></g></g></g><g><g><g><path d="m333.213 343.787c-13.691-36.581 13.477-29.094 14.119-69.953.642-40.86 29.736-38.079 29.736-38.079s4.825-1.778 11.546-2.534c-11.885-1.496-22.82 2.534-22.82 2.534s-29.094-2.782-29.736 38.079c-.642 40.859-27.81 33.372-14.119 69.953 5.335 14.255 22.237 17.756 40.879 16.721-13.872-.881-25.375-5.419-29.605-16.721z" fill="#212121"/></g></g></g><g><g><g><path d="" fill="#6e6eff"/></g></g></g><g><g><g><path d="m434.224 444.885c28.703-12.31 19.297-59.669 10.658-87.963-4.036-13.22-14.989-23.161-28.54-25.888l-22.782-4.584-15.923.207-15.923-.207-22.654 4.574c-13.54 2.734-24.482 12.671-28.516 25.883-8.64 28.292-18.055 75.666 10.653 87.978" fill="#f955af"/></g></g></g><g><g><g><path d="m377.636 326.657-15.924-.207-22.654 4.573c-13.54 2.733-24.481 12.671-28.516 25.883-8.64 28.292-18.055 75.666 10.653 87.978h3.771c-19.325-16.905-10.927-57.818-3.151-83.281 4.035-13.211 14.976-23.149 28.516-25.883l22.654-4.573 15.924.207 4.65-4.904z" fill="#ef009f"/></g></g></g><g><g><g><g><path d="m331.261 415.392c-6.428 1.058-16.716 4.434-26.53 10.72 2.824 8.397 7.981 15.125 16.488 18.774l18.485-1.947c-3.009-9.322-6.965-21.615-7.075-21.941-.623-1.836-1.073-3.712-1.368-5.606z" fill="#ffc0b3"/></g></g></g><g><g><g><path d="m321.219 444.885 3.375-.355c-6.26-5.689-9.521-13.962-10.795-23.409-2.983 1.4-6.048 3.056-9.068 4.991 2.824 8.396 7.981 15.124 16.488 18.773z" fill="#f9a395"/></g></g></g><g><g><g><path d="m424.158 415.392c6.428 1.058 16.716 4.434 26.53 10.72-2.824 8.397-7.981 15.125-16.488 18.774l-18.485-1.947c3.009-9.322 6.965-21.615 7.075-21.941.623-1.836 1.073-3.712 1.368-5.606z" fill="#ffc0b3"/></g></g></g></g><g><g><g><g><path d="m427.736 402.297c-.577 0-1.149-.248-1.545-.727-6.99-8.466-9.14-28.265-9.228-29.104-.115-1.1.682-2.084 1.782-2.201 1.111-.114 2.084.682 2.201 1.782.021.194 2.111 19.437 8.333 26.972 1.096 1.241.086 3.33-1.543 3.278z" fill="#ef009f"/></g></g></g><g><g><g><path d="m327.682 402.297c-1.629.052-2.639-2.037-1.543-3.277 6.231-7.546 8.312-26.779 8.333-26.972.115-1.1 1.1-1.893 2.201-1.782 1.1.115 1.898 1.101 1.782 2.201-.088.839-2.237 20.637-9.228 29.104-.396.477-.968.726-1.545.726z" fill="#ef009f"/></g></g></g></g><g><g><g><path d="m362.289 307.787v21.738c0 8.546 6.956 15.459 15.501 15.406 8.465-.052 15.302-6.923 15.312-15.388l.027-21.757h-30.84z" fill="#f9a395"/></g></g></g><g><g><g><path d="m407.852 282.914c-1.35-1.167-3.191.154-4.631 1.665v-9.44c-17.642-1.429-23.245-13.764-24.106-20.298h-8.123c-10.379 0-18.793 8.414-18.793 18.793v10.944c-1.441-1.511-3.282-2.832-4.631-1.665-5.747 4.969-.441 17.558 4.65 17.418.383 13.754 11.646 24.789 25.492 24.789 13.847 0 25.109-11.034 25.492-24.789 5.091.142 10.397-12.448 4.65-17.417z" fill="#ffc0b3"/></g></g></g></g><g><g><g><g><path d="m430.45 389.174h-105.355c-5.539 0-9.876 4.768-9.352 10.282l5.672 59.784c.458 4.823 4.508 8.507 9.352 8.507h94.747c4.889 0 8.96-3.749 9.363-8.621l4.936-59.784c.452-5.476-3.869-10.168-9.363-10.168z" fill="#131c46"/></g></g></g><g><g><g><g><path d="m331.074 430.952-3.964-41.778h-2.015c-5.539 0-9.876 4.768-9.352 10.282l5.672 59.784c.458 4.823 4.508 8.507 9.353 8.507h94.747c4.889 0 8.961-3.75 9.363-8.622l.219-2.651h-75.965c-14.535-.001-26.685-11.053-28.058-25.522z" fill="#0b1226"/></g></g></g></g><g><g><g><circle cx="377.71" cy="425.817" fill="#fff" r="14.618"/></g></g></g><g><g><g><g><path d="m372.504 425.817c0-6.424 4.15-11.868 9.912-13.829-1.478-.503-3.057-.789-4.706-.789-8.073 0-14.618 6.545-14.618 14.618s6.545 14.618 14.618 14.618c1.649 0 3.228-.285 4.706-.789-5.761-1.961-9.912-7.405-9.912-13.829z" fill="#e2d2f7"/></g></g></g></g></g></g></g><g><g><g><g><g><path d="m0 137.583 15.945-18.071h101.615v-52.007h-117.56z" fill="#f955af"/></g></g></g><g><g><g><path d="m10.011 89.478v-21.973h-10.011v70.078l15.945-18.071h101.615v-10.011h-87.527c-11.058 0-20.022-8.964-20.022-20.023z" fill="#ef009f"/></g></g></g><g><g><g><circle cx="58.78" cy="93.449" fill="#fff" r="9.01"/></g></g></g><g><g><g><circle cx="92.82" cy="93.449" fill="#fff" r="9.01"/></g></g></g><g><g><g><circle cx="24.741" cy="93.449" fill="#fff" r="9.01"/></g></g></g></g><g><g><g><g><path d="m468 137.583-15.945-18.071h-101.615v-52.007h117.56z" fill="#865acc"/></g></g></g><g><g><g><path d="m457.989 89.478v-21.973h10.011v70.078l-15.945-18.071h-101.615v-10.011h87.527c11.058 0 20.022-8.964 20.022-20.023z" fill="#6a42ba"/></g></g></g><g><g><g><circle cx="409.22" cy="93.449" fill="#fff" r="9.01"/></g></g></g><g><g><g><circle cx="375.18" cy="93.449" fill="#fff" r="9.01"/></g></g></g><g><g><g><circle cx="443.259" cy="93.449" fill="#fff" r="9.01"/></g></g></g></g></g></g></svg>